<svg id="Capa_1" enable-background="new 0 0 512 512" height="512" viewBox="0 0 512 512" width="512" xmlns="http://www.w3.org/2000/svg"><g><g><path d="m451 512h-390v-480h390z" fill="#ecf2ff"/></g><path d="m256 32h195v480h-195z" fill="#d9e5ff"/><g id="Task_1_"><g><path d="m361 62h-210v-62h210z" fill="#5a7380"/></g><g><path d="m166 212c-24.814 0-45-20.186-45-45s20.186-45 45-45 45 20.186 45 45-20.186 45-45 45z" fill="#ff5959"/></g><g><path d="m166 332c-24.814 0-45-20.186-45-45s20.186-45 45-45 45 20.186 45 45-20.186 45-45 45z" fill="#ff5959"/></g><g><path d="m166 452c-24.814 0-45-20.186-45-45s20.186-45 45-45 45 20.186 45 45-20.186 45-45 45z" fill="#ff5959"/></g></g><path d="m256 0h105v62h-105z" fill="#475e66"/><g fill="#95b2e6"><path d="m256 152h135v30h-135z"/><path d="m256 272h135v30h-135z"/><path d="m256 392h135v30h-135z"/></g></g></svg>